<?xml version="1.0" encoding="utf-8"?>
<!-- Generator: Adobe Illustrator 16.2.0, SVG Export Plug-In . SVG Version: 6.00 Build 0)  -->
<!DOCTYPE svg PUBLIC "-//W3C//DTD SVG 1.1//EN" "http://www.w3.org/Graphics/SVG/1.1/DTD/svg11.dtd">
<svg version="1.1" id="Слой_1" xmlns="http://www.w3.org/2000/svg" xmlns:xlink="http://www.w3.org/1999/xlink" x="0px" y="0px"
	 width="45.84px" height="46px" viewBox="0 0 45.84 46" enable-background="new 0 0 45.84 46" xml:space="preserve">
<g>
	<g>
		<defs>
			<rect id="SVGID_1_" width="45.84" height="46"/>
		</defs>
		<clipPath id="SVGID_2_">
			<use xlink:href="#SVGID_1_"  overflow="visible"/>
		</clipPath>
		<path clip-path="url(#SVGID_2_)" fill="#010101" d="M30.406,32.168c-0.457-0.453-1.09-0.703-1.785-0.703
			c-0.73,0-1.438,0.285-1.934,0.785l-3.156,3.152L22.68,34.93c-1.871-1.039-4.442-2.465-7.153-5.18
			c-2.722-2.719-4.148-5.293-5.191-7.176l-0.465-0.828l3.16-3.156c1.043-1.047,1.078-2.715,0.078-3.719L7.273,9.039
			C6.82,8.586,6.188,8.332,5.492,8.332c-0.73,0-1.433,0.289-1.933,0.789l-1.434,1.438l-0.133,0.223
			c-0.535,0.683-0.969,1.453-1.297,2.289c-0.304,0.8-0.492,1.558-0.578,2.32c-0.754,6.25,2.129,11.988,9.949,19.808
			c9.27,9.27,17.016,9.992,19.172,9.992c0.367,0,0.59-0.023,0.652-0.027c0.797-0.098,1.559-0.289,2.324-0.586
			c0.828-0.324,1.597-0.758,2.281-1.289l0.324-0.258l1.34-1.316c1.043-1.043,1.078-2.707,0.074-3.711L30.406,32.168z M30.406,32.168
			"/>
	</g>
	<path fill="#020202" d="M24.23,21.379c-1.27-1.269-2.868-2.183-4.609-2.636l-0.801-0.215l-0.23,0.793
		c-0.086,0.293-0.188,0.57-0.301,0.82l-0.434,0.926l0.993,0.258c1.316,0.332,2.519,1.011,3.472,1.964
		c0.911,0.91,1.575,2.047,1.922,3.293l0.168,0.602l1.254,0.07c0.129,0.016,0.254,0.027,0.375,0.039l1.18,0.113l-0.277-1.152
		C26.504,24.402,25.566,22.715,24.23,21.379L24.23,21.379z M24.23,21.379"/>
	<path fill="#020202" d="M28.324,17.282c-2.359-2.356-5.371-3.895-8.707-4.446l-1.16-0.195l0.18,1.16
		c0.054,0.344,0.101,0.688,0.14,1.031l0.075,0.614l0.617,0.121c2.66,0.492,5.059,1.746,6.941,3.629
		c2.164,2.16,3.484,4.921,3.82,7.98l0.07,0.648l0.98,0.141c0.16,0.012,0.32,0.012,0.543,0.012l1.184,0.043l-0.094-0.965
		C32.547,23.297,30.957,19.918,28.324,17.282L28.324,17.282z M28.324,17.282"/>
	<path fill="#020202" d="M32.77,12.836c-3.867-3.867-9.016-6.172-14.503-6.484l-1.067-0.066l0.18,1.05
		c0.055,0.34,0.121,0.692,0.191,1.055l0.129,0.637l0.645,0.039c4.734,0.324,9.18,2.34,12.516,5.679
		c3.285,3.286,5.293,7.68,5.652,12.367l0.063,0.836l0.832-0.051c0.199-0.008,0.395-0.027,0.68-0.051l1.191-0.094l-0.066-0.848
		C38.805,21.579,36.516,16.579,32.77,12.836L32.77,12.836z M32.77,12.836"/>
	<path fill="#020202" d="M45.496,26.309c-0.543-6.766-3.48-13.133-8.273-17.926C32.109,3.27,25.305,0.305,18.066,0.036L17.242,0
		l-0.058,0.825c-0.016,0.23-0.028,0.457-0.036,0.687l-0.05,1.199l0.851,0.028c6.566,0.246,12.73,2.929,17.359,7.558
		c4.34,4.336,7,10.102,7.496,16.234l0.07,0.859l0.867-0.082c0.293-0.031,0.59-0.055,0.891-0.078l0.934-0.07L45.496,26.309z
		 M45.496,26.309"/>
</g>
</svg>
