<?xml version="1.0" encoding="utf-8"?>
<!-- Generator: Adobe Illustrator 16.2.0, SVG Export Plug-In . SVG Version: 6.00 Build 0)  -->
<!DOCTYPE svg PUBLIC "-//W3C//DTD SVG 1.1//EN" "http://www.w3.org/Graphics/SVG/1.1/DTD/svg11.dtd">
<svg fill="#de5800" version="1.1" id="Слой_1" xmlns="http://www.w3.org/2000/svg" xmlns:xlink="http://www.w3.org/1999/xlink" x="0px" y="0px"
	 width="25.602px" height="18.754px" viewBox="0 0 25.602 18.754" enable-background="new 0 0 25.602 18.754" xml:space="preserve">
<g fill="#de5800">
	<path d="M25.59,2.387l-1.164-0.399l0.008-1c0,0-2.57-0.988-5.832-0.988c-2.742,0-5.059,0.703-5.801,0.957
		C12.062,0.703,9.746,0,7.004,0C3.742,0,1.285,0.969,1.285,0.969l0.012,1.113L0,2.426l0.008,16.328l0.867-0.367
		c0.031-0.012,2.953-1.227,5.648-1.227c2.313,0,5.016,0.68,5.829,0.901l0.543,0.153l0.507-0.16c0.73-0.223,3.133-0.895,5.398-0.895
		c2.676,0,5.914,1.223,5.949,1.234l0.852,0.324L25.59,2.387z M12.203,16.465c-1.16-0.305-3.367-0.801-5.367-0.801
		c-1.949,0-3.941,0.473-5.027,0.781V2.168c1.054-0.281,2.867-0.672,4.894-0.672c2.485,0,4.664,0.586,5.5,0.84V16.465z
		 M23.801,16.465c-1.16-0.305-3.371-0.801-5.371-0.801c-1.868,0-3.766,0.434-4.875,0.738V2.336c0.82-0.254,2.965-0.84,5.422-0.84
		c1.996,0,3.777,0.387,4.82,0.668v14.301H23.801z M23.801,16.465"/>
	<path d="M15.445,3.953c0.02,0,1.848-0.336,3.699-0.336c1.848,0,3.504,0.332,3.52,0.336l0.145-0.484
		c-0.07-0.016-1.742-0.348-3.664-0.348c-1.918,0-3.754,0.332-3.828,0.348L15.445,3.953z M15.445,3.953"/>
	<path d="M22.664,5.316l0.145-0.484c-0.07-0.016-1.742-0.352-3.664-0.352c-1.918,0-3.75,0.336-3.828,0.352l0.129,0.488
		c0.02-0.004,1.848-0.34,3.699-0.34C20.992,4.98,22.648,5.312,22.664,5.316L22.664,5.316z M22.664,5.316"/>
	<path d="M15.445,6.617c0.02-0.004,1.848-0.336,3.699-0.336c1.848,0,3.504,0.332,3.52,0.336l0.145-0.484
		c-0.07-0.016-1.742-0.352-3.664-0.352c-1.918,0-3.754,0.336-3.832,0.352L15.445,6.617z M15.445,6.617"/>
	<path d="M19.145,7.645c1.848,0,3.504,0.332,3.52,0.335l0.145-0.484c-0.07-0.016-1.742-0.351-3.664-0.351s-3.754,0.335-3.832,0.351
		l0.133,0.484C15.465,7.977,17.289,7.645,19.145,7.645L19.145,7.645z M19.145,7.645"/>
	<path d="M19.145,8.961c1.848,0,3.504,0.332,3.52,0.336l0.145-0.485c-0.07-0.011-1.742-0.347-3.664-0.347
		c-1.918,0-3.754,0.332-3.832,0.347l0.133,0.489C15.465,9.297,17.293,8.961,19.145,8.961L19.145,8.961z M19.145,8.961"/>
	<path d="M19.145,9.824c-1.918,0-3.754,0.336-3.832,0.352l0.133,0.484c0.016,0,1.844-0.336,3.699-0.336
		c1.848,0,3.504,0.332,3.52,0.336l0.145-0.484C22.738,10.16,21.066,9.824,19.145,9.824L19.145,9.824z M19.145,9.824"/>
	<path d="M15.316,11.473l0.129,0.484c0.02,0,1.848-0.336,3.699-0.336c1.848,0,3.504,0.332,3.52,0.336l0.145-0.484
		c-0.07-0.016-1.742-0.348-3.664-0.348C17.227,11.121,15.391,11.457,15.316,11.473L15.316,11.473z M15.316,11.473"/>
	<path d="M15.316,12.766l0.129,0.488c0.02-0.004,1.848-0.34,3.699-0.34c1.848,0,3.504,0.336,3.52,0.336l0.145-0.484
		c-0.07-0.012-1.742-0.348-3.664-0.348C17.227,12.418,15.391,12.75,15.316,12.766L15.316,12.766z M15.316,12.766"/>
	<path d="M15.316,14.145l0.129,0.488c0.02-0.004,1.848-0.336,3.699-0.336c1.848,0,3.504,0.332,3.52,0.336l0.145-0.484
		c-0.07-0.016-1.742-0.352-3.664-0.352C17.227,13.797,15.391,14.133,15.316,14.145L15.316,14.145z M15.316,14.145"/>
	<path d="M6.582,5.68c-0.117-0.004-0.23-0.012-0.344-0.016C5.832,5.645,5.492,5.988,5.445,6.379C5.16,6.457,4.891,6.574,4.664,6.762
		C4.457,6.934,4.375,7.203,4.395,7.465C3.723,7.656,3.262,8.027,3.43,8.738H3.121l1.824,3.903h4.532l1.824-3.903h-0.289
		c-0.039-0.304-0.219-0.586-0.563-0.652c0.008-0.024,0.02-0.047,0.031-0.074c0.239-0.664-0.257-1-0.8-1.149
		c0.019-0.226-0.047-0.468-0.211-0.672C9.34,6.039,9.145,5.941,8.922,5.887C8.879,5.684,8.773,5.5,8.562,5.395
		C8.461,5.34,8.355,5.289,8.254,5.234c-0.047-0.023-0.09-0.047-0.133-0.07C7.945,4.441,6.773,4.242,6.582,5.113
		C6.535,5.328,6.539,5.516,6.582,5.68L6.582,5.68z M5.305,12.398L4.094,9.117l0.277-0.004l1.215,3.266L5.305,12.398z M6.047,12.383
		L5.426,9.137L5.68,9.129l0.648,3.254H6.047z M10.027,9.113l0.266,0.016l-1.18,3.273l-0.277-0.02L10.027,9.113z M8.859,9.109
		l0.262,0.02l-0.676,3.27l-0.25,0.008L8.859,9.109z M7.688,9.129l0.25,0.016l-0.184,3.238H7.516L7.688,9.129z M6.844,9.109
		l0.215,3.266l-0.25,0.016L6.594,9.125L6.844,9.109z M6.844,9.109"/>
</g>
</svg>
