<?xml version="1.0" encoding="utf-8"?>
<!-- Generator: Adobe Illustrator 16.2.0, SVG Export Plug-In . SVG Version: 6.00 Build 0)  -->
<!DOCTYPE svg PUBLIC "-//W3C//DTD SVG 1.1//EN" "http://www.w3.org/Graphics/SVG/1.1/DTD/svg11.dtd">
<svg version="1.1" id="Слой_1" xmlns="http://www.w3.org/2000/svg" xmlns:xlink="http://www.w3.org/1999/xlink" x="0px" y="0px"
	 width="57.559px" height="78.171px" viewBox="0 0 57.559 78.171" enable-background="new 0 0 57.559 78.171" xml:space="preserve">
<g>
	<path fill="#7d7d7d" d="M28.777,0C12.91,0,0,12.91,0,28.777c0,4.141,0.848,8.094,2.516,11.75c7.195,15.741,20.992,32.366,25.05,37.086
		c0.301,0.354,0.746,0.558,1.211,0.558c0.469,0,0.911-0.203,1.215-0.558c4.055-4.72,17.852-21.341,25.047-37.086
		c1.672-3.656,2.52-7.609,2.52-11.75C57.555,12.91,44.645,0,28.777,0L28.777,0z M28.777,43.726c-8.242,0-14.949-6.707-14.949-14.949
		c0-8.242,6.707-14.949,14.949-14.949c8.243,0,14.95,6.707,14.95,14.949C43.727,37.019,37.02,43.726,28.777,43.726L28.777,43.726z
		 M28.777,43.726"/>
</g>
</svg>
