<svg xmlns="http://www.w3.org/2000/svg" width="24.477" height="24.574" viewBox="0 0 24.477 24.574"><g fill-rule="evenodd" clip-rule="evenodd" fill="#050008"><path d="M18.355 4.508a.383.383 0 0 1-.765 0V.383a.384.384 0 0 1 .766 0v4.125zm0 0M6.883 4.508a.38.38 0 1 1-.762 0V.383C6.117.172 6.289 0 6.5 0s.383.172.383.383v4.125zm0 0M3.348 9.754a.384.384 0 0 1-.383-.383c0-.207.172-.379.383-.379h17.781c.211 0 .383.172.383.379a.384.384 0 0 1-.383.383H3.348zm0 0M9.656 20.734a.383.383 0 0 1-.765 0v-6.98L7.57 15.078a.386.386 0 0 1-.543 0 .388.388 0 0 1 0-.543l1.977-1.973a.378.378 0 0 1 .269-.113c.211 0 .383.172.383.383v7.902zm0 0M12.238 21.117a.383.383 0 0 1 0-.765h1.977a1.586 1.586 0 0 0 1.59-1.595c0-.438-.176-.836-.465-1.125v-.004a1.604 1.604 0 0 0-1.125-.465h-1.977a.384.384 0 0 1-.383-.383v-3.949c0-.211.172-.383.383-.383h3.95a.384.384 0 0 1 0 .766h-3.566v3.184h1.594c.648 0 1.238.266 1.664.691v.004c.43.427.691 1.016.691 1.664s-.266 1.238-.691 1.668a2.346 2.346 0 0 1-1.664.691h-1.978zm0 0"/><path d="M0 8.387a.384.384 0 0 1 .766 0v13.832c0 .438.179.836.468 1.121.289.289.688.47 1.125.47h19.758a1.59 1.59 0 0 0 1.125-.47c.289-.285.469-.684.469-1.121V8.387a.38.38 0 1 1 .762 0v13.832c0 .648-.266 1.238-.691 1.664a2.346 2.346 0 0 1-1.664.691H2.359A2.362 2.362 0 0 1 0 22.219V8.387zm0 0M6.5 1.914a.384.384 0 0 1 0 .766H2.359c-.433 0-.832.179-1.125.468l-.019.02a1.59 1.59 0 0 0-.449 1.105v1.754h22.945V4.273c0-.437-.18-.836-.469-1.125l-.02-.019a1.59 1.59 0 0 0-1.105-.449h-2.613a.384.384 0 0 1 0-.766h2.613c.629 0 1.211.258 1.637.672l.027.023c.426.426.695 1.016.695 1.664V6.41a.384.384 0 0 1-.383.383H.383A.384.384 0 0 1 0 6.41V4.273c0-.632.258-1.211.672-1.64l.023-.024a2.341 2.341 0 0 1 1.664-.695H6.5zm11.473 0H8.031a.384.384 0 0 0 0 .766h9.941a.383.383 0 1 0 .001-.766zm0 0"/></g></svg>