<?xml version="1.0" encoding="utf-8"?>
<!-- Generator: Adobe Illustrator 16.2.0, SVG Export Plug-In . SVG Version: 6.00 Build 0)  -->
<!DOCTYPE svg PUBLIC "-//W3C//DTD SVG 1.1//EN" "http://www.w3.org/Graphics/SVG/1.1/DTD/svg11.dtd">
<svg version="1.1" id="Слой_1" xmlns="http://www.w3.org/2000/svg" xmlns:xlink="http://www.w3.org/1999/xlink" x="0px" y="0px"
	 width="16px" height="16px" viewBox="0 0 16 16" enable-background="new 0 0 16 16" xml:space="preserve">
<g>
	<path fill="#7d7d7d" d="M4.801,12.801c-0.879,0-1.602,0.719-1.602,1.598C3.199,15.281,3.922,16,4.801,16c0.879,0,1.597-0.719,1.597-1.602
		C6.398,13.52,5.68,12.801,4.801,12.801L4.801,12.801z M0,0v1.602h1.602L4.48,7.68L3.359,9.602c-0.078,0.238-0.16,0.559-0.16,0.797
		C3.199,11.281,3.922,12,4.801,12h9.598v-1.602H5.121c-0.082,0-0.16-0.078-0.16-0.16V10.16L5.68,8.801h5.921
		c0.637,0,1.117-0.32,1.359-0.801l2.879-5.199C16,2.641,16,2.559,16,2.398c0-0.476-0.32-0.796-0.801-0.796H3.359L2.641,0H0z
		 M12.801,12.801c-0.879,0-1.602,0.719-1.602,1.598c0,0.883,0.723,1.602,1.602,1.602s1.598-0.719,1.598-1.602
		C14.398,13.52,13.68,12.801,12.801,12.801L12.801,12.801z M12.801,12.801"/>
</g>
</svg>
