<?xml version="1.0" encoding="utf-8"?>
<!-- Generator: Adobe Illustrator 16.2.0, SVG Export Plug-In . SVG Version: 6.00 Build 0)  -->
<!DOCTYPE svg PUBLIC "-//W3C//DTD SVG 1.1//EN" "http://www.w3.org/Graphics/SVG/1.1/DTD/svg11.dtd">
<svg version="1.1" id="Слой_1" xmlns="http://www.w3.org/2000/svg" xmlns:xlink="http://www.w3.org/1999/xlink" x="0px" y="0px"
	 width="24.477px" height="24.574px" viewBox="0 0 24.477 24.574" enable-background="new 0 0 24.477 24.574" xml:space="preserve">
<g>
	<path fill-rule="evenodd" clip-rule="evenodd" fill="#050008" d="M18.355,4.508c0,0.211-0.172,0.383-0.383,0.383
		S17.59,4.719,17.59,4.508V0.383C17.59,0.172,17.762,0,17.973,0c0.215,0,0.383,0.172,0.383,0.383V4.508z M18.355,4.508"/>
	<path fill-rule="evenodd" clip-rule="evenodd" fill="#050008" d="M6.883,4.508c0,0.211-0.172,0.383-0.383,0.383
		S6.121,4.719,6.121,4.508V0.383C6.117,0.172,6.289,0,6.5,0s0.383,0.172,0.383,0.383V4.508z M6.883,4.508"/>
	<path fill-rule="evenodd" clip-rule="evenodd" fill="#050008" d="M3.348,9.754c-0.211,0-0.383-0.172-0.383-0.383
		c0-0.207,0.172-0.379,0.383-0.379h17.781c0.211,0,0.383,0.172,0.383,0.379c0,0.211-0.172,0.383-0.383,0.383H3.348z M3.348,9.754"/>
	<path fill-rule="evenodd" clip-rule="evenodd" fill="#050008" d="M9.656,20.734c0,0.211-0.172,0.383-0.383,0.383
		s-0.382-0.172-0.382-0.383v-6.98L7.57,15.078c-0.148,0.149-0.394,0.149-0.543,0c-0.148-0.148-0.148-0.391,0-0.543l1.977-1.973
		c0.07-0.07,0.164-0.113,0.269-0.113c0.211,0,0.383,0.172,0.383,0.383V20.734z M9.656,20.734"/>
	<path fill-rule="evenodd" clip-rule="evenodd" fill="#050008" d="M12.238,21.117c-0.211,0-0.383-0.172-0.383-0.383
		s0.172-0.382,0.383-0.382h1.977c0.438,0,0.836-0.177,1.125-0.466s0.465-0.688,0.465-1.129c0-0.438-0.176-0.836-0.465-1.125v-0.004
		c-0.289-0.285-0.688-0.465-1.125-0.465h-1.977c-0.211,0-0.383-0.172-0.383-0.383v-3.949c0-0.211,0.172-0.383,0.383-0.383h3.95
		c0.211,0,0.383,0.172,0.383,0.383s-0.172,0.383-0.383,0.383h-3.566v3.184h1.594c0.648,0,1.238,0.266,1.664,0.691v0.004
		c0.43,0.427,0.691,1.016,0.691,1.664s-0.266,1.238-0.691,1.668c-0.426,0.427-1.016,0.691-1.664,0.691H12.238z M12.238,21.117"/>
	<path fill-rule="evenodd" clip-rule="evenodd" fill="#050008" d="M0,8.387c0-0.215,0.172-0.383,0.383-0.383
		s0.383,0.172,0.383,0.383v13.832c0,0.438,0.179,0.836,0.468,1.121c0.289,0.289,0.688,0.47,1.125,0.47h19.758
		c0.438,0,0.836-0.181,1.125-0.47c0.289-0.285,0.469-0.684,0.469-1.121V8.387c0-0.215,0.168-0.383,0.383-0.383
		c0.211,0,0.379,0.172,0.379,0.383v13.832c0,0.648-0.266,1.238-0.691,1.664c-0.426,0.427-1.016,0.691-1.664,0.691H2.359
		c-0.648,0-1.238-0.265-1.668-0.691C0.266,23.457,0,22.863,0,22.219V8.387z M0,8.387"/>
	<path fill-rule="evenodd" clip-rule="evenodd" fill="#050008" d="M6.5,1.914c0.211,0,0.383,0.172,0.383,0.383
		c0,0.211-0.172,0.383-0.383,0.383H2.359c-0.433,0-0.832,0.179-1.125,0.468l-0.019,0.02c-0.277,0.285-0.449,0.68-0.449,1.105v1.754
		h22.945V4.273c0-0.437-0.18-0.836-0.469-1.125l-0.02-0.019c-0.285-0.277-0.68-0.449-1.105-0.449h-2.613
		c-0.211,0-0.383-0.172-0.383-0.383c0-0.211,0.172-0.383,0.383-0.383h2.613c0.629,0,1.211,0.258,1.637,0.672l0.027,0.023
		c0.426,0.426,0.695,1.016,0.695,1.664V6.41c0,0.211-0.172,0.383-0.383,0.383H0.383C0.172,6.793,0,6.621,0,6.41V4.273
		c0-0.632,0.258-1.211,0.672-1.64l0.023-0.024C1.121,2.18,1.711,1.914,2.359,1.914H6.5z M17.973,1.914H8.031
		c-0.211,0-0.383,0.172-0.383,0.383c0,0.211,0.172,0.383,0.383,0.383h9.941c0.215,0,0.383-0.172,0.383-0.383
		C18.355,2.086,18.184,1.914,17.973,1.914L17.973,1.914z M17.973,1.914"/>
</g>
</svg>
