<?xml version="1.0" encoding="utf-8"?>
<!-- Generator: Adobe Illustrator 16.2.0, SVG Export Plug-In . SVG Version: 6.00 Build 0)  -->
<!DOCTYPE svg PUBLIC "-//W3C//DTD SVG 1.1//EN" "http://www.w3.org/Graphics/SVG/1.1/DTD/svg11.dtd">
<svg version="1.1"
	 id="svg2" xmlns:rdf="http://www.w3.org/1999/02/22-rdf-syntax-ns#" xmlns:dc="http://purl.org/dc/elements/1.1/" xmlns:svg="http://www.w3.org/2000/svg" xmlns:cc="http://creativecommons.org/ns#"
	 xmlns="http://www.w3.org/2000/svg" xmlns:xlink="http://www.w3.org/1999/xlink" x="0px" y="0px" width="180px" height="55.785px"
	 viewBox="10 10 180 55.785" enable-background="new 10 10 180 55.785" xml:space="preserve">
<g id="g10" transform="matrix(1.25,0,0,-1.25,-74.19125,149.0417)">
	<g id="g4163" transform="matrix(0.6384875,0,0,0.6384875,24.348951,24.07854)">
		<g id="g12" transform="translate(143.448,67.609)">
			<path id="path14" fill="#2B3894" d="M0-0.001l10.938,67.714h17.484L17.485-0.001H0"/>
		</g>
		<g id="g16" transform="translate(224.353,133.66)">
			<path id="path18" fill="#2B3894" d="M-0.001,0c-3.457,1.358-8.893,2.841-15.667,2.841c-17.286,0-29.454-9.189-29.555-22.348
				c-0.11-9.732,8.683-15.162,15.312-18.396c6.813-3.316,9.102-5.439,9.074-8.404c-0.046-4.535-5.438-6.612-10.464-6.612
				c-7,0-10.719,1.023-16.469,3.551l-2.249,1.078l-2.445-15.158c4.077-1.886,11.635-3.523,19.479-3.608
				c18.371,0,30.308,9.078,30.448,23.128c0.064,7.718-4.596,13.57-14.686,18.399c-6.111,3.14-9.86,5.22-9.818,8.398
				c0.005,2.814,3.169,5.827,10.016,5.827c5.719,0.092,9.86-1.225,13.085-2.601l1.57-0.775L-0.001,0"/>
		</g>
		<g id="g20" transform="translate(247.634,91.616)">
			<path id="path22" fill="#2B3894" d="M0,0c1.45,3.891,6.966,18.925,6.966,18.925c-0.103-0.177,1.44,3.923,2.322,6.461l1.181-5.839
				c0,0,3.355-16.162,4.046-19.547C11.793,0,3.415,0,0,0z M21.57,43.636H8.057c-4.19,0-7.327-1.198-9.162-5.613l-25.966-62.055
				h18.365c0,0,2.995,8.347,3.676,10.18c2.002,0,19.847-0.035,22.394-0.035c0.524-2.363,2.129-10.145,2.129-10.145H35.72
				L21.57,43.636"/>
		</g>
		<g id="g24" transform="translate(128.78,135.265)">
			<path id="path26" fill="#2B3894" d="M0,0l-17.113-46.164l-1.833,9.384c-3.189,10.813-13.116,22.531-24.22,28.403l15.656-59.219
				l18.504,0.011L18.528,0H0"/>
		</g>
		<g id="g28" transform="translate(95.781,135.311)">
			<path id="path30" fill="#F79510" d="M0,0h-28.195l-0.233-1.403c21.94-5.609,36.456-19.148,42.481-35.423L7.926-5.713
				C6.869-1.422,3.797-0.15,0,0"/>
		</g>
		<g id="g32" transform="translate(288.329,72.034)">
			<path id="path34" fill="#2B3894" d="M0,0h0.827c0.585,0,0.705,0.341,0.705,0.617C1.532,1.09,1.226,1.2,0.749,1.2H0V0z
				 M-0.714,1.725h1.706c0.399,0,1.271-0.104,1.271-1.109c0-0.266-0.08-0.641-0.65-0.885v-0.021
				c0.493-0.084,0.519-0.551,0.548-0.925c0.037-0.598,0-0.705,0.157-0.916H1.576c-0.142,0.142-0.11,0.253-0.142,0.88
				c0,0.356-0.044,0.719-0.847,0.719H0V-2.13h-0.715V1.725z M0.695-3.508c1.753,0,3.132,1.456,3.132,3.274
				c0,1.822-1.379,3.277-3.132,3.277s-3.13-1.455-3.13-3.277C-2.435-2.052-1.058-3.508,0.695-3.508z M0.695,3.629
				c2.163,0,3.862-1.731,3.862-3.863c0-2.129-1.698-3.86-3.862-3.86c-2.162,0-3.859,1.731-3.859,3.86
				C-3.164,1.898-1.467,3.629,0.695,3.629"/>
		</g>
	</g>
</g>
</svg>
