<?xml version="1.0" encoding="utf-8"?>
<!-- Generator: Adobe Illustrator 16.2.0, SVG Export Plug-In . SVG Version: 6.00 Build 0)  -->
<!DOCTYPE svg PUBLIC "-//W3C//DTD SVG 1.1//EN" "http://www.w3.org/Graphics/SVG/1.1/DTD/svg11.dtd">
<svg version="1.1" id="Слой_1" xmlns="http://www.w3.org/2000/svg" xmlns:xlink="http://www.w3.org/1999/xlink" x="0px" y="0px"
	 width="355.445px" height="390.218px" viewBox="0 0 355.445 390.218" enable-background="new 0 0 355.445 390.218"
	 xml:space="preserve">
<g>
	<path d="M207.785,106.586c0,0-19.613,181.464-207.785,283.632c0,0,258.305-0.226,355.445-238.937
		C302.34,104.609,207.785,106.586,207.785,106.586L207.785,106.586z M242.516,172.289c-4.992,8.863-9.445,18.004-14.652,26.742
		c-5.609,9.402-30.273,48.188-53.496,74.427c-2.918,3.293-6.062,6.39-9.094,9.578c-3.343,3.261-6.628,6.597-10.046,9.772
		c-3.286,3.055-6.653,6.028-9.981,9.031c-3.605,3.028-7.207,6.059-10.808,9.09c3.16-3.468,6.324-6.941,9.484-10.418
		c2.875-3.394,5.805-6.758,8.633-10.199c2.925-3.562,5.711-7.254,8.55-10.883c3.93-5.414,7.868-10.801,11.563-16.375
		c3.781-5.711,7.379-11.515,10.949-17.359c4.051-7.164,7.984-14.362,11.781-21.668l2.043-4.207
		c8.629-18.733,17.188-37.52,23.836-57.069c2.656-7.813,4.656-15.801,6.539-23.829c0.73-4.207,1.477-8.41,2.211-12.613l27.75,6.778
		C257.777,133.086,251.523,156.3,242.516,172.289L242.516,172.289z M242.516,172.289"/>
	<path d="M337.504,120.386l3.344-8.66c-6.852-7.613-14.527-13.758-22.945-18.387C334.281,60.488,332.695,20.855,321.441,0
		L306.91,18.265c0,0,3.762,31.02-20.082,65.344c-18.094-2-31.563,2.187-32.27,2.414l-1.52,8.422
		C276.887,97.781,309.32,104.961,337.504,120.386L337.504,120.386z M337.504,120.386"/>
</g>
</svg>
