<svg fill="#038232" xmlns="http://www.w3.org/2000/svg" xmlns:xlink="http://www.w3.org/1999/xlink" width="56.88" height="79" viewBox="0 0 56.88 79"><defs><path id="a" d="M0 0h56.88v79H0z"/></defs><clipPath id="b"><use xlink:href="#a" overflow="visible"/></clipPath><path clip-path="url(#b)" d="M47.945 0s-6.477 6.285-13.48 8.816C-17.41 27.582 4.469 64.145 5.18 64.266c0 0 2.91-5.066 6.84-7.957 24.933-18.329 30.003-39.43 30.003-39.43S36.426 42.27 14.242 58.066C9.344 61.554 6.027 70.14 4.621 78.722c0 0 3.477-1.402 4.969-1.781.582-3.801 1.801-7.441 3.859-10.691 31 3.691 41.156-21.289 42.48-30C59.062 15.676 47.945 0 47.945 0zm0 0"/></svg>