<svg fill="#b81000" xmlns="http://www.w3.org/2000/svg" width="42.446" height="46.598" viewBox="0 0 42.446 46.598"><path d="M24.813 12.728S22.471 34.397 0 46.598c0 0 30.845-.027 42.446-28.533-6.342-5.573-17.633-5.337-17.633-5.337zm4.146 7.846c-.596 1.059-1.127 2.15-1.75 3.194-.669 1.123-3.614 5.754-6.388 8.887-.348.394-.724.764-1.086 1.145-.399.389-.792.787-1.2 1.166-.392.365-.794.721-1.192 1.079l-1.291 1.085 1.133-1.244c.343-.404.693-.807 1.031-1.217.349-.426.682-.867 1.021-1.301.469-.646.939-1.289 1.381-1.955.452-.682.881-1.375 1.307-2.072.484-.855.953-1.715 1.407-2.588l.243-.502c1.031-2.237 2.053-4.481 2.848-6.815.316-.933.556-1.887.78-2.845.087-.502.177-1.004.265-1.506l3.313.81c.001-.002-.745 2.77-1.822 4.679zm0 0M40.303 14.376l.398-1.034a10.467 10.467 0 0 0-2.74-2.196C39.918 7.223 39.729 2.49 38.385 0l-1.736 2.181s.449 3.704-2.397 7.803c-2.161-.239-3.769.261-3.854.289l-.182 1.006c2.849.397 6.722 1.255 10.087 3.097zm0 0"/></svg>