<?xml version="1.0" encoding="utf-8"?>
<!-- Generator: Adobe Illustrator 16.2.0, SVG Export Plug-In . SVG Version: 6.00 Build 0)  -->
<!DOCTYPE svg PUBLIC "-//W3C//DTD SVG 1.1//EN" "http://www.w3.org/Graphics/SVG/1.1/DTD/svg11.dtd">
<svg version="1.1" id="Слой_1" xmlns="http://www.w3.org/2000/svg" xmlns:xlink="http://www.w3.org/1999/xlink" x="0px" y="0px"
	 width="51.199px" height="51.199px" viewBox="0 0 51.199 51.199" enable-background="new 0 0 51.199 51.199" xml:space="preserve">
<g>
	<path fill="#a8a8a8" d="M25.602,0C11.461,0,0,11.461,0,25.602c0,14.137,11.461,25.598,25.602,25.598c14.136,0,25.597-11.461,25.597-25.598
		C51.199,11.461,39.738,0,25.602,0L25.602,0z M25.602,49.603c-13.258,0-24-10.747-24-24.001c0-13.257,10.742-24,24-24
		c13.253,0,24,10.742,24,24C49.602,38.855,38.855,49.603,25.602,49.603L25.602,49.603z M25.602,49.603"/>
	<path fill="#a8a8a8" d="M36.809,16.246l-5.43-3.226c-0.75-0.446-1.711-0.184-2.145,0.589l-5.833,10.672l-0.781,1.395
		c-0.258,0.457-0.625,1.023-0.59,1.617l-0.422,7.105h-7.211V36h8.801v-0.012c0.227-0.004,0.453-0.051,0.66-0.156l5.848-3.979
		c0.516-0.263,0.805-0.879,1.059-1.336l0.785-1.396l0.391-0.699l5.441-9.973C37.816,17.676,37.559,16.691,36.809,16.246
		L36.809,16.246z M30.586,27.613l-0.395,0.699c0,0-0.277,0.5-0.781,1.398s-1.574,1.75-1.965,1.945l-2.972,2.406
		c-0.352,0.18-0.766,0.168-1.106-0.035c-0.34-0.199-0.558-0.563-0.582-0.965l0.539-3.855c-0.027-0.445,0.145-1.815,0.653-2.723
		c0.507-0.906,1.566-2.793,1.566-2.793l1.57-2.796l1.145-2.129l5.434,3.226l-1.148,2.133L30.586,27.613z M34.434,20.605L29,17.383
		l1.594-2.969l5.434,3.227L34.434,20.605z M34.434,20.605"/>
</g>
</svg>
