<?xml version="1.0" encoding="utf-8"?>
<!-- Generator: Adobe Illustrator 16.2.0, SVG Export Plug-In . SVG Version: 6.00 Build 0)  -->
<!DOCTYPE svg PUBLIC "-//W3C//DTD SVG 1.1//EN" "http://www.w3.org/Graphics/SVG/1.1/DTD/svg11.dtd">
<svg version="1.1" id="Слой_1" xmlns="http://www.w3.org/2000/svg" xmlns:xlink="http://www.w3.org/1999/xlink" x="0px" y="0px"
	 width="56.88px" height="79px" viewBox="0 0 56.88 79" enable-background="new 0 0 56.88 79" xml:space="preserve">
<g>
	<g>
		<defs>
			<rect id="SVGID_1_" width="56.88" height="79"/>
		</defs>
		<clipPath id="SVGID_2_">
			<use xlink:href="#SVGID_1_"  overflow="visible"/>
		</clipPath>
		<path clip-path="url(#SVGID_2_)" d="M47.945,0c0,0-6.477,6.285-13.48,8.816C-17.41,27.582,4.469,64.145,5.18,64.266
			c0,0,2.91-5.066,6.84-7.957c24.933-18.329,30.003-39.43,30.003-39.43S36.426,42.27,14.242,58.066
			c-4.898,3.488-8.215,12.074-9.621,20.656c0,0,3.477-1.402,4.969-1.781c0.582-3.801,1.801-7.441,3.859-10.691
			c31,3.691,41.156-21.289,42.48-30C59.062,15.676,47.945,0,47.945,0L47.945,0z M47.945,0"/>
	</g>
</g>
</svg>
