<?xml version="1.0" encoding="utf-8"?>
<!-- Generator: Adobe Illustrator 16.2.0, SVG Export Plug-In . SVG Version: 6.00 Build 0)  -->
<!DOCTYPE svg PUBLIC "-//W3C//DTD SVG 1.1//EN" "http://www.w3.org/Graphics/SVG/1.1/DTD/svg11.dtd">
<svg version="1.1" id="Слой_1" xmlns="http://www.w3.org/2000/svg" xmlns:xlink="http://www.w3.org/1999/xlink" x="0px" y="0px"
	 width="296.064px" height="177.255px" viewBox="1.967 1.872 296.064 177.255" enable-background="new 1.967 1.872 296.064 177.255"
	 xml:space="preserve">
<path fill="#FF9900" d="M298.031,90.5c0.015,48.936-39.646,88.614-88.581,88.627c-48.938,0.012-88.614-39.646-88.627-88.582V90.5
	c-0.014-48.935,39.646-88.615,88.58-88.628c48.938-0.013,88.615,39.647,88.628,88.583V90.5z"/>
<path fill="#CC0000" d="M90.001,1.895C41.355,2.204,1.967,41.781,1.967,90.5c0,48.909,39.695,88.604,88.604,88.604
	c22.955,0,43.88-8.748,59.624-23.086l-0.007-0.004h0.02c3.226-2.938,6.231-6.109,8.995-9.488H141.05
	c-2.398-2.895-4.604-5.943-6.606-9.127h31.309c1.91-3.055,3.633-6.223,5.158-9.487h-41.636c-1.411-3.03-2.647-6.138-3.703-9.31
	h49.046c3.028-9.059,4.568-18.55,4.56-28.103c0-6.512-0.706-12.861-2.042-18.974h-54.164c0.673-3.146,1.517-6.253,2.528-9.308
	h49.063c-1.09-3.233-2.365-6.4-3.819-9.487H129.27c1.5-3.205,3.197-6.313,5.084-9.307h31.285c-2.081-3.311-4.378-6.48-6.877-9.488
	h-17.443c2.729-3.207,5.701-6.199,8.89-8.95c-15.746-14.34-36.676-23.09-59.637-23.09H90.001L90.001,1.895z"/>
<path fill="#FCB340" d="M289.143,136.82c0.482,0,0.951,0.125,1.409,0.371c0.46,0.246,0.814,0.601,1.07,1.062
	c0.256,0.456,0.384,0.937,0.384,1.435c0,0.492-0.127,0.969-0.379,1.424c-0.251,0.455-0.605,0.811-1.062,1.063
	c-0.45,0.249-0.928,0.375-1.424,0.375s-0.972-0.126-1.426-0.375c-0.447-0.247-0.816-0.615-1.063-1.063
	c-0.245-0.434-0.375-0.924-0.377-1.424c0-0.498,0.127-0.979,0.385-1.435c0.247-0.45,0.619-0.818,1.07-1.062
	C288.163,136.951,288.649,136.824,289.143,136.82 M289.143,137.295c-0.4,0-0.793,0.104-1.176,0.311
	c-0.38,0.207-0.677,0.5-0.891,0.889c-0.212,0.362-0.324,0.774-0.325,1.193c0,0.412,0.105,0.811,0.314,1.188
	c0.214,0.377,0.511,0.673,0.889,0.886c0.381,0.211,0.775,0.314,1.188,0.314c0.414,0,0.811-0.104,1.189-0.314
	c0.378-0.213,0.673-0.509,0.884-0.886c0.421-0.739,0.418-1.646-0.008-2.382c-0.204-0.378-0.516-0.687-0.895-0.889
	C289.956,137.404,289.553,137.297,289.143,137.295 M287.887,141.27v-3.082h1.062c0.36,0,0.622,0.028,0.784,0.088
	c0.159,0.055,0.295,0.158,0.389,0.298c0.223,0.324,0.182,0.762-0.099,1.038c-0.169,0.172-0.397,0.272-0.639,0.281
	c0.097,0.039,0.187,0.095,0.264,0.164c0.125,0.12,0.275,0.323,0.455,0.61l0.375,0.603h-0.605l-0.272-0.484
	c-0.215-0.383-0.388-0.62-0.521-0.719c-0.092-0.068-0.225-0.104-0.397-0.104h-0.293v1.312h-0.5 M288.385,139.535h0.604
	c0.288,0,0.483-0.044,0.589-0.129c0.104-0.083,0.162-0.209,0.158-0.342c0.002-0.088-0.023-0.174-0.074-0.244
	c-0.054-0.074-0.128-0.131-0.214-0.162c-0.089-0.035-0.255-0.055-0.496-0.055h-0.564v0.932"/>
<g>
	<path fill="#000066" d="M119.975,115.92l1.18-8.02c-0.645,0-1.593,0.279-2.431,0.279c-3.284,0-3.694-1.756-3.436-3.037l3.235-16.13
		h4.992l1.029-9.103h-4.705l0.958-5.516h-9.842c-0.208,0.208-5.568,31.022-5.568,34.776c0,5.556,3.118,8.026,7.516,7.988
		C116.346,117.127,119.029,116.175,119.975,115.92L119.975,115.92z M122.962,100.632c0,13.332,8.799,16.499,16.297,16.499
		c6.921,0,10.55-1.604,10.55-1.604l1.662-9.101c0,0-5.848,2.378-10.601,2.378c-10.132,0-8.355-7.554-8.355-7.554l19.463,0.06
		c0,0,1.239-6.111,1.239-8.603c0-6.217-3.387-13.85-13.745-13.85C129.986,78.861,122.962,89.082,122.962,100.632z M139.508,87.307
		c5.324,0,4.342,5.984,4.342,6.468h-10.474C133.376,93.156,134.365,87.306,139.508,87.307L139.508,87.307z M199.246,115.917
		l1.688-10.284c0,0-4.632,2.32-7.807,2.32c-6.693,0-9.378-5.11-9.378-10.6c0-11.138,5.758-17.266,12.168-17.266
		c4.808,0,8.665,2.699,8.665,2.699l1.54-9.993c0,0-4.555-3.29-9.456-3.308c-14.745-0.058-23.183,10.208-23.183,27.956
		c0,11.763,6.248,19.768,17.507,19.768C194.174,117.209,199.246,115.917,199.246,115.917L199.246,115.917z M68.086,79.006
		c-6.47,0-11.427,2.079-11.427,2.079l-1.37,8.127c0,0,4.093-1.663,10.279-1.663c3.515,0,6.084,0.395,6.084,3.25
		c0,1.734-0.313,2.374-0.313,2.374s-2.772-0.231-4.056-0.231c-9.211,0-16.729,3.482-16.729,13.98c0,8.273,5.623,10.17,9.108,10.17
		c6.656,0,9.292-4.203,9.443-4.215l-0.077,3.488h8.308l3.706-25.98C81.042,79.36,71.426,79.005,68.086,79.006L68.086,79.006z
		 M69.524,100.102c0.181,1.586-0.41,9.086-6.092,9.086c-2.93,0-3.69-2.239-3.69-3.562c0-2.584,1.402-5.683,8.314-5.683
		C69.666,99.943,69.253,100.059,69.524,100.102L69.524,100.102z M89.87,116.9c2.126,0,14.272,0.539,14.272-11.994
		c0-11.721-11.244-9.404-11.244-14.114c0-2.342,1.833-3.08,5.185-3.08c1.329,0,6.446,0.423,6.446,0.423l1.189-8.33
		c0,0-3.312-0.741-8.704-0.741c-6.979,0-14.063,2.786-14.063,12.318c0,10.802,11.812,9.718,11.812,14.267
		c0,3.037-3.3,3.287-5.844,3.287c-4.401,0-8.363-1.511-8.377-1.438l-1.26,8.245C79.513,115.813,81.958,116.9,89.87,116.9
		L89.87,116.9z M277.063,71.449l-1.705,12.709c0,0-3.553-4.905-9.111-4.905c-10.459,0-15.85,10.423-15.85,22.396
		c0,7.73,3.845,15.308,11.699,15.308c5.651,0,8.784-3.94,8.784-3.94l-0.415,3.364h9.178l7.207-44.862L277.063,71.449L277.063,71.449
		z M273.011,96.148c0,4.984-2.468,11.641-7.581,11.641c-3.396,0-4.988-2.85-4.988-7.323c0-7.315,3.285-12.14,7.433-12.14
		c3.394,0,5.137,2.33,5.137,7.824V96.148z M17.005,116.417l5.743-33.87l0.844,33.87h6.499l12.125-33.87l-5.371,33.87h9.658
		l7.437-44.922l-15.342-0.117l-9.126,27.504l-0.25-27.387h-14.06l-7.544,44.922H17.005z"/>
	<path fill="#000066" d="M162.357,116.48c2.746-15.614,3.725-27.946,11.732-25.393c1.149-6.044,3.891-11.3,5.143-13.858
		c0,0-0.396-0.59-2.871-0.59c-4.225,0-9.865,8.575-9.865,8.575l0.843-5.301h-8.786l-5.884,36.566H162.357z M219.006,79.006
		c-6.472,0-11.43,2.079-11.43,2.079l-1.369,8.127c0,0,4.095-1.663,10.279-1.663c3.515,0,6.083,0.395,6.083,3.25
		c0,1.734-0.313,2.374-0.313,2.374s-2.771-0.231-4.055-0.231c-9.21,0-16.729,3.482-16.729,13.98c0,8.273,5.622,10.17,9.107,10.17
		c6.654,0,9.292-4.203,9.442-4.215l-0.078,3.488h8.311l3.704-25.98C231.96,79.36,222.344,79.005,219.006,79.006L219.006,79.006z
		 M220.442,100.102c0.181,1.586-0.411,9.086-6.092,9.086c-2.932,0-3.691-2.239-3.691-3.562c0-2.584,1.401-5.683,8.314-5.683
		C220.584,99.943,220.172,100.059,220.442,100.102z M241.522,116.48c1.508-11.487,4.299-27.615,11.731-25.393
		c1.148-6.044,0.041-6.028-2.434-6.028c-4.228,0-5.164,0.154-5.164,0.154l0.845-5.301h-8.785l-5.884,36.567H241.522L241.522,116.48z
		"/>
	<g>
		<path fill="#FFFFFF" d="M122.434,113.059l1.181-8.019c-0.645,0-1.594,0.276-2.431,0.276c-3.284,0-3.646-1.746-3.437-3.037
			l2.652-16.362h4.991l1.205-8.87h-4.706l0.958-5.516h-9.434c-0.208,0.208-5.569,31.023-5.569,34.775
			c0,5.555,3.119,8.028,7.517,7.988C118.806,114.266,121.488,113.313,122.434,113.059z M125.423,97.77
			c0,13.332,8.8,16.5,16.297,16.5c6.92,0,9.965-1.547,9.965-1.547l1.662-9.099c0,0-5.264,2.319-10.018,2.319
			c-10.13,0-8.356-7.553-8.356-7.553h19.172c0,0,1.238-6.113,1.238-8.604c0-6.216-3.094-13.79-13.452-13.79
			C132.445,75.998,125.423,86.219,125.423,97.77z M141.967,84.445c5.324,0,4.342,5.983,4.342,6.467h-10.474
			C135.835,90.294,136.825,84.445,141.967,84.445z M201.707,113.055l1.688-10.285c0,0-4.629,2.321-7.806,2.321
			c-6.692,0-9.376-5.11-9.376-10.6c0-11.137,5.758-17.264,12.168-17.264c4.807,0,8.665,2.699,8.665,2.699l1.54-9.993
			c0,0-5.722-2.315-10.625-2.315c-10.892,0-21.486,9.448-21.486,27.192c0,11.766,5.721,19.537,16.979,19.537
			C196.637,114.348,201.707,113.055,201.707,113.055L201.707,113.055z M70.547,76.143c-6.469,0-11.428,2.079-11.428,2.079
			l-1.369,8.127c0,0,4.093-1.663,10.279-1.663c3.514,0,6.083,0.395,6.083,3.25c0,1.734-0.314,2.374-0.314,2.374
			s-2.771-0.232-4.054-0.232c-8.159,0-16.73,3.482-16.73,13.98c0,8.271,5.623,10.17,9.108,10.17c6.655,0,9.524-4.319,9.678-4.332
			l-0.312,3.604h8.308l3.706-25.981C83.502,76.498,73.887,76.143,70.547,76.143z M72.568,97.297
			c0.181,1.587-0.995,9.026-6.675,9.026c-2.93,0-3.691-2.238-3.691-3.563c0-2.581,1.402-5.682,8.315-5.682
			C72.125,97.081,72.297,97.253,72.568,97.297z M92.331,114.038c2.125,0,14.272,0.54,14.272-11.995
			c0-11.719-11.245-9.404-11.245-14.112c0-2.344,1.833-3.082,5.184-3.082c1.33,0,6.446,0.423,6.446,0.423l1.19-8.33
			c0,0.001-3.312-0.741-8.704-0.741c-6.979,0-14.063,2.786-14.063,12.318c0,10.801,11.812,9.717,11.812,14.267
			c0,3.037-3.3,3.284-5.843,3.284c-4.401,0-8.364-1.51-8.378-1.438l-1.258,8.246C81.973,112.948,84.417,114.038,92.331,114.038z
			 M279.852,68.668l-2.035,12.627c0,0-3.551-4.905-9.109-4.905c-8.645,0-15.85,10.422-15.85,22.397
			c0,7.73,3.844,15.304,11.699,15.304c5.651,0,8.784-3.94,8.784-3.94l-0.415,3.365h9.176l7.207-44.863L279.852,68.668z
			 M275.471,93.288c0,4.983-2.467,11.639-7.582,11.639c-3.395,0-4.986-2.85-4.986-7.323c0-7.313,3.285-12.14,7.431-12.14
			C273.729,85.463,275.471,87.796,275.471,93.288z M19.466,113.555l5.743-33.87l0.843,33.87h6.5l12.125-33.87l-5.371,33.87h9.658
			l7.438-44.923H41.467l-9.301,27.563l-0.484-27.563H17.915l-7.545,44.923H19.466z M164.818,113.617
			c2.746-15.616,3.255-28.296,9.809-25.975c1.146-6.044,2.254-8.382,3.506-10.94c0,0-0.587-0.123-1.819-0.123
			c-4.225,0-7.354,5.772-7.354,5.772l0.841-5.301h-8.784l-5.885,36.567H164.818L164.818,113.617z M223.475,76.143
			c-6.469,0-11.428,2.079-11.428,2.079l-1.368,8.127c0,0,4.093-1.663,10.28-1.663c3.513,0,6.081,0.395,6.081,3.25
			c0,1.734-0.313,2.374-0.313,2.374s-2.77-0.232-4.055-0.232c-8.158,0-16.729,3.482-16.729,13.98c0,8.271,5.622,10.17,9.107,10.17
			c6.656,0,9.525-4.319,9.677-4.332l-0.309,3.604h8.307l3.705-25.981C236.431,76.498,226.815,76.143,223.475,76.143z
			 M225.499,97.297c0.18,1.587-0.996,9.026-6.679,9.026c-2.93,0-3.689-2.238-3.689-3.563c0-2.581,1.403-5.682,8.314-5.682
			C225.054,97.081,225.226,97.253,225.499,97.297z M244.023,113.617c2.747-15.616,3.256-28.296,9.808-25.975
			c1.148-6.044,2.257-8.382,3.508-10.94c0,0-0.587-0.123-1.82-0.123c-4.224,0-7.354,5.772-7.354,5.772l0.84-5.301h-8.783
			l-5.885,36.567H244.023z M289.105,107.975c0.479,0,0.951,0.123,1.406,0.373c0.459,0.242,0.816,0.598,1.072,1.06
			c0.257,0.458,0.383,0.935,0.383,1.434c0,0.493-0.126,0.97-0.379,1.425c-0.243,0.448-0.611,0.817-1.06,1.063
			c-0.453,0.25-0.93,0.376-1.424,0.376c-0.498,0-0.974-0.126-1.429-0.376c-0.446-0.246-0.813-0.615-1.058-1.063
			c-0.249-0.434-0.381-0.925-0.382-1.425c0-0.499,0.127-0.976,0.385-1.434c0.246-0.45,0.619-0.818,1.072-1.06
			C288.154,108.098,288.626,107.975,289.105,107.975 M289.105,108.447c-0.4,0-0.793,0.104-1.176,0.313
			c-0.378,0.201-0.689,0.509-0.894,0.885c-0.215,0.381-0.322,0.78-0.322,1.194s0.104,0.81,0.313,1.188
			c0.213,0.377,0.51,0.673,0.892,0.886c0.378,0.208,0.772,0.313,1.188,0.313c0.412,0,0.811-0.105,1.188-0.313
			c0.378-0.213,0.674-0.509,0.884-0.886c0.211-0.381,0.313-0.774,0.313-1.188s-0.106-0.813-0.32-1.194
			c-0.204-0.377-0.515-0.685-0.895-0.885C289.918,108.558,289.516,108.449,289.105,108.447 M287.85,112.423v-3.083h1.062
			c0.36,0,0.625,0.029,0.784,0.088c0.159,0.054,0.296,0.158,0.389,0.297c0.094,0.132,0.145,0.289,0.146,0.451
			c0.002,0.221-0.086,0.434-0.244,0.588c-0.168,0.172-0.396,0.272-0.637,0.28c0.096,0.04,0.185,0.095,0.262,0.163
			c0.123,0.122,0.275,0.326,0.455,0.611l0.377,0.604h-0.608l-0.271-0.484c-0.216-0.383-0.389-0.621-0.521-0.719
			c-0.092-0.07-0.225-0.105-0.399-0.105h-0.291v1.311L287.85,112.423 M288.348,110.688h0.604c0.288,0,0.483-0.043,0.588-0.129
			c0.104-0.082,0.164-0.209,0.159-0.342c0.002-0.086-0.024-0.172-0.074-0.242c-0.054-0.074-0.128-0.131-0.213-0.164
			c-0.092-0.035-0.255-0.053-0.498-0.053h-0.565L288.348,110.688"/>
	</g>
</g>
</svg>
