<?xml version="1.0" encoding="utf-8"?>
<!-- Generator: Adobe Illustrator 16.2.0, SVG Export Plug-In . SVG Version: 6.00 Build 0)  -->
<!DOCTYPE svg PUBLIC "-//W3C//DTD SVG 1.1//EN" "http://www.w3.org/Graphics/SVG/1.1/DTD/svg11.dtd">
<svg fill="#b81000" version="1.1" id="Слой_1" xmlns="http://www.w3.org/2000/svg" xmlns:xlink="http://www.w3.org/1999/xlink" x="0px" y="0px"
	 width="42.446px" height="46.598px" viewBox="0 0 42.446 46.598" enable-background="new 0 0 42.446 46.598" xml:space="preserve">
<g>
	<path d="M24.813,12.728c0,0-2.342,21.669-24.813,33.87c0,0,30.845-0.027,42.446-28.533C36.104,12.492,24.813,12.728,24.813,12.728
		L24.813,12.728z M28.959,20.574c-0.596,1.059-1.127,2.15-1.75,3.194c-0.669,1.123-3.614,5.754-6.388,8.887
		c-0.348,0.394-0.724,0.764-1.086,1.145c-0.399,0.389-0.792,0.787-1.2,1.166c-0.392,0.365-0.794,0.721-1.192,1.079
		c-0.43,0.361-0.86,0.724-1.291,1.085c0.377-0.414,0.755-0.828,1.133-1.244c0.343-0.404,0.693-0.807,1.031-1.217
		c0.349-0.426,0.682-0.867,1.021-1.301c0.469-0.646,0.939-1.289,1.381-1.955c0.452-0.682,0.881-1.375,1.307-2.072
		c0.484-0.855,0.953-1.715,1.407-2.588l0.243-0.502c1.031-2.237,2.053-4.481,2.848-6.815c0.316-0.933,0.556-1.887,0.78-2.845
		c0.087-0.502,0.177-1.004,0.265-1.506l3.313,0.81C30.782,15.893,30.036,18.665,28.959,20.574L28.959,20.574z M28.959,20.574"/>
	<path d="M40.303,14.376l0.398-1.034c-0.818-0.909-1.734-1.643-2.74-2.196C39.918,7.223,39.729,2.49,38.385,0l-1.736,2.181
		c0,0,0.449,3.704-2.397,7.803c-2.161-0.239-3.769,0.261-3.854,0.289l-0.182,1.006C33.065,11.676,36.938,12.534,40.303,14.376
		L40.303,14.376z M40.303,14.376"/>
</g>
</svg>
