<?xml version="1.0" encoding="utf-8"?>
<!-- Generator: Adobe Illustrator 16.2.0, SVG Export Plug-In . SVG Version: 6.00 Build 0)  -->
<!DOCTYPE svg PUBLIC "-//W3C//DTD SVG 1.1//EN" "http://www.w3.org/Graphics/SVG/1.1/DTD/svg11.dtd">
<svg version="1.1" id="Слой_1" xmlns:sketch="http://www.bohemiancoding.com/sketch/ns"
	 xmlns="http://www.w3.org/2000/svg" xmlns:xlink="http://www.w3.org/1999/xlink" x="0px" y="0px" width="22px" height="23px"
	 viewBox="14 13.5 22 23" enable-background="new 14 13.5 22 23" xml:space="preserve">
<title>Intsagram</title>
<description>Created with Sketch (http://www.bohemiancoding.com/sketch)</description>
<path fill="#006729" d="M35.951,34.51c0.02-0.102,0.033-0.206,0.049-0.309V15.799c-0.016-0.101-0.029-0.202-0.047-0.303
	c-0.193-1.031-1.006-1.831-2.005-1.974c-0.042-0.005-0.082-0.015-0.123-0.022h-17.65c-0.107,0.02-0.214,0.035-0.319,0.06
	c-0.975,0.232-1.696,1.053-1.834,2.085c-0.006,0.043-0.014,0.085-0.021,0.128v18.453c0.02,0.117,0.036,0.235,0.061,0.352
	c0.216,0.996,1.029,1.769,1.997,1.898c0.047,0.006,0.094,0.016,0.141,0.023h17.602c0.115-0.021,0.229-0.037,0.342-0.063
	C35.041,36.238,35.775,35.455,35.951,34.51z"/>
<path fill="#FFFFFF" stroke="#006729" stroke-miterlimit="10" d="M16.38,33.1c0,0.488,0.405,0.91,0.874,0.91
	c5.163,0,10.325,0,15.488,0c0.473,0,0.876-0.42,0.876-0.914c0.001-3.399,0-6.799,0-10.198v-0.071h-2.101
	c0.297,0.991,0.389,1.999,0.271,3.026s-0.434,1.983-0.949,2.866c-0.516,0.885-1.186,1.617-2.004,2.199
	c-2.123,1.512-4.919,1.646-7.172,0.323c-1.139-0.667-2.033-1.599-2.657-2.798c-0.93-1.79-1.079-3.669-0.533-5.618
	c-0.697,0-1.391,0-2.094,0v0.062C16.38,26.291,16.38,29.695,16.38,33.1z"/>
<path fill="#FFFFFF" stroke="#006729" stroke-miterlimit="10" d="M24.898,29.658c2.491,0.056,4.505-2.025,4.557-4.556
	c0.055-2.609-1.959-4.765-4.455-4.763c-2.44-0.002-4.423,2.051-4.458,4.59C20.507,27.537,22.504,29.604,24.898,29.658z"/>
<path fill="#FFFFFF" stroke="#006729" stroke-miterlimit="10" d="M33.617,18.481c0.001-0.726,0.001-1.452,0-2.178
	c0-0.521-0.394-0.936-0.891-0.936c-0.693,0-1.386-0.001-2.078,0c-0.497,0-0.893,0.416-0.893,0.937c0,0.72-0.002,1.44,0.002,2.16
	c0.001,0.107,0.021,0.219,0.053,0.321c0.125,0.383,0.461,0.618,0.872,0.62c0.334,0,0.669,0,1.003,0
	c0.361-0.004,0.725,0.003,1.087-0.006C33.238,19.387,33.617,18.969,33.617,18.481z"/>
</svg>
