<?xml version="1.0" encoding="utf-8"?>
<!-- Generator: Adobe Illustrator 16.2.0, SVG Export Plug-In . SVG Version: 6.00 Build 0)  -->
<!DOCTYPE svg PUBLIC "-//W3C//DTD SVG 1.1//EN" "http://www.w3.org/Graphics/SVG/1.1/DTD/svg11.dtd">
<svg version="1.1" id="Слой_1" xmlns="http://www.w3.org/2000/svg" xmlns:xlink="http://www.w3.org/1999/xlink" x="0px" y="0px"
	 width="37.92px" height="24px" viewBox="0 0 37.92 24" enable-background="new 0 0 37.92 24" xml:space="preserve">
<g>
	<g>
		<defs>
			<rect id="SVGID_1_" width="37.92" height="24"/>
		</defs>
		<clipPath id="SVGID_2_">
			<use xlink:href="#SVGID_1_"  overflow="visible"/>
		</clipPath>
		<path clip-path="url(#SVGID_2_)" d="M23.43,7.809c-0.594-0.344-1.328-0.348-1.922-0.008l-7.328,4.187
			c-0.598,0.344-0.973,0.98-0.973,1.672v7.551c0,1.063,0.863,1.926,1.93,1.926h7.328c1.063,0,1.926-0.863,1.926-1.926V9.477
			C24.391,8.789,24.023,8.152,23.43,7.809L23.43,7.809z M23.43,7.809"/>
		<path clip-path="url(#SVGID_2_)" d="M10.32,15.301c-0.597-0.348-1.328-0.348-1.925-0.008l-7.422,4.242
			c-0.758,0.434-1.133,1.324-0.907,2.172c0.223,0.844,0.989,1.434,1.864,1.434h7.422c1.066,0,1.929-0.863,1.929-1.93v-4.242
			C11.281,16.281,10.914,15.645,10.32,15.301L10.32,15.301z M10.32,15.301"/>
		<path clip-path="url(#SVGID_2_)" d="M36.641,0.262c-0.598-0.348-1.329-0.348-1.926-0.008l-7.422,4.242
			C26.691,4.84,26.32,5.481,26.32,6.172v15.039c0,1.066,0.863,1.93,1.93,1.93h7.422c1.066,0,1.93-0.863,1.93-1.93V1.93
			C37.602,1.242,37.234,0.606,36.641,0.262L36.641,0.262z M36.641,0.262"/>
	</g>
</g>
</svg>
