<svg xmlns="http://www.w3.org/2000/svg" width="116.088" height="115.537"><g fill="#006729"><path d="M58.044 29.535c4.771 0 8.65 3.88 8.65 8.65 0 4.766-3.879 8.646-8.65 8.646-4.765 0-8.65-3.88-8.65-8.646 0-4.77 3.885-8.65 8.65-8.65zm0 29.535c11.524 0 20.892-9.368 20.892-20.885 0-11.522-9.368-20.894-20.892-20.894-11.52 0-20.89 9.372-20.89 20.894 0 11.517 9.37 20.885 20.89 20.885M66.497 76.112a39.118 39.118 0 0 0 12.13-5.025 6.12 6.12 0 0 0 1.92-8.44 6.116 6.116 0 0 0-8.44-1.924c-8.557 5.381-19.575 5.379-28.128 0a6.113 6.113 0 0 0-8.437 1.925 6.12 6.12 0 0 0 1.916 8.44 39.19 39.19 0 0 0 12.132 5.024l-11.68 11.68a6.122 6.122 0 0 0 8.66 8.654L58.042 84.97l11.482 11.477a6.116 6.116 0 0 0 8.652 0 6.115 6.115 0 0 0 0-8.655l-11.68-11.679"/></g></svg>