<svg xmlns="http://www.w3.org/2000/svg" width="51.199" height="51.199" viewBox="0 0 51.199 51.199"><path d="M25.602 0C11.461 0 0 11.461 0 25.602 0 39.739 11.461 51.2 25.602 51.2c14.136 0 25.597-11.461 25.597-25.598C51.199 11.461 39.738 0 25.602 0zm0 49.603c-13.258 0-24-10.747-24-24.001 0-13.257 10.742-24 24-24 13.253 0 24 10.742 24 24 0 13.253-10.747 24.001-24 24.001zm0 0"/><path d="M36.809 16.246l-5.43-3.226a1.546 1.546 0 0 0-2.145.589l-5.833 10.672-.781 1.395c-.258.457-.625 1.023-.59 1.617l-.422 7.105h-7.211V36h8.801v-.012a1.51 1.51 0 0 0 .66-.156l5.848-3.979c.516-.263.805-.879 1.059-1.336l.785-1.396.391-.699 5.441-9.973c.434-.773.177-1.758-.573-2.203zm-6.223 11.367l-.395.699s-.277.5-.781 1.398-1.574 1.75-1.965 1.945l-2.972 2.406c-.352.18-.766.168-1.106-.035a1.198 1.198 0 0 1-.582-.965l.539-3.855c-.027-.445.145-1.815.653-2.723l1.566-2.793 1.57-2.796 1.145-2.129 5.434 3.226-1.148 2.133-1.958 3.489zm3.848-7.008L29 17.383l1.594-2.969 5.434 3.227-1.594 2.964zm0 0"/></svg>