<svg xmlns="http://www.w3.org/2000/svg" width="16" height="16" viewBox="0 0 16 16"><path fill="#7d7d7d" d="M4.801 12.801c-.879 0-1.602.719-1.602 1.598 0 .882.723 1.601 1.602 1.601.879 0 1.597-.719 1.597-1.602 0-.878-.718-1.597-1.597-1.597zM0 0v1.602h1.602L4.48 7.68 3.359 9.602c-.078.238-.16.559-.16.797 0 .882.723 1.601 1.602 1.601h9.598v-1.602H5.121a.169.169 0 0 1-.16-.16v-.078l.719-1.359h5.921c.637 0 1.117-.32 1.359-.801l2.879-5.199c.161-.16.161-.242.161-.403 0-.476-.32-.796-.801-.796H3.359L2.641 0H0zm12.801 12.801c-.879 0-1.602.719-1.602 1.598 0 .883.723 1.602 1.602 1.602s1.598-.719 1.598-1.602a1.603 1.603 0 0 0-1.598-1.598zm0 0"/></svg>