<svg xmlns="http://www.w3.org/2000/svg" width="22" height="23" viewBox="14 13.5 22 23"><title>Intsagram</title><path fill="#006729" d="M35.951 34.51c.02-.102.033-.206.049-.309V15.799c-.016-.101-.029-.202-.047-.303-.193-1.031-1.006-1.831-2.005-1.974-.042-.005-.082-.015-.123-.022h-17.65c-.107.02-.214.035-.319.06-.975.232-1.696 1.053-1.834 2.085-.006.043-.014.085-.021.128v18.453c.02.117.036.235.061.352.216.996 1.029 1.769 1.997 1.898.047.006.094.016.141.023h17.602c.115-.021.229-.037.342-.063.897-.198 1.631-.981 1.807-1.926z"/><path fill="#FFF" stroke="#006729" stroke-miterlimit="10" d="M16.38 33.1c0 .488.405.91.874.91h15.488c.473 0 .876-.42.876-.914V22.827h-2.101c.297.991.389 1.999.271 3.026s-.434 1.983-.949 2.866a6.985 6.985 0 0 1-2.004 2.199 6.586 6.586 0 0 1-7.172.323 6.847 6.847 0 0 1-2.657-2.798c-.93-1.79-1.079-3.669-.533-5.618h-2.094v.062L16.38 33.1z"/><path fill="#FFF" stroke="#006729" stroke-miterlimit="10" d="M24.898 29.658c2.491.056 4.505-2.025 4.557-4.556.055-2.609-1.959-4.765-4.455-4.763-2.44-.002-4.423 2.051-4.458 4.59-.035 2.608 1.962 4.675 4.356 4.729zM33.617 18.481v-2.178c0-.521-.394-.936-.891-.936h-2.078c-.497 0-.893.416-.893.937 0 .72-.002 1.44.002 2.16.001.107.021.219.053.321.125.383.461.618.872.62h1.003c.361-.004.725.003 1.087-.006.466-.012.845-.43.845-.918z"/></svg>