<svg xmlns="http://www.w3.org/2000/svg" width="57.559" height="78.171" viewBox="0 0 57.559 78.171"><path fill="#7d7d7d" d="M28.777 0C12.91 0 0 12.91 0 28.777c0 4.141.848 8.094 2.516 11.75 7.195 15.741 20.992 32.366 25.05 37.086a1.596 1.596 0 0 0 2.426 0c4.055-4.72 17.852-21.341 25.047-37.086 1.672-3.656 2.52-7.609 2.52-11.75C57.555 12.91 44.645 0 28.777 0zm0 43.726c-8.242 0-14.949-6.707-14.949-14.949s6.707-14.949 14.949-14.949c8.243 0 14.95 6.707 14.95 14.949s-6.707 14.949-14.95 14.949zm0 0"/></svg>