<svg xmlns="http://www.w3.org/2000/svg" width="180" height="55.785" viewBox="10 10 180 55.785"><path fill="#2B3894" d="M70.732 64.985l8.73-54.043h13.954l-8.729 54.043H70.732M135.302 12.268c-2.759-1.084-7.097-2.267-12.504-2.267-13.796 0-23.507 7.334-23.588 17.836-.088 7.767 6.93 12.1 12.22 14.682 5.438 2.646 7.265 4.34 7.243 6.707-.037 3.62-4.34 5.277-8.351 5.277-5.587 0-8.555-.816-13.145-2.834l-1.794-.86-1.952 12.098c3.254 1.505 9.286 2.811 15.547 2.88 14.662 0 24.189-7.246 24.3-18.46.051-6.16-3.668-10.83-11.72-14.684-4.878-2.506-7.87-4.166-7.837-6.702.004-2.246 2.53-4.65 7.994-4.65 4.565-.074 7.87.977 10.444 2.075l1.253.618 1.89-11.716M153.884 45.824c1.157-3.106 5.56-15.104 5.56-15.104-.083.141 1.149-3.131 1.853-5.157l.942 4.66s2.678 12.9 3.23 15.6h-11.585zm17.215-34.826h-10.785c-3.344 0-5.847.956-7.312 4.48l-20.724 49.526h14.658s2.39-6.662 2.933-8.125c1.598 0 15.84.028 17.873.028.419 1.886 1.7 8.097 1.7 8.097h12.95L171.1 10.998M59.025 10.987L45.367 47.831l-1.463-7.49c-2.545-8.63-10.468-17.981-19.33-22.668L37.07 64.936l14.769-.009 21.975-53.94H59.025"/><path fill="#F79510" d="M32.689 10.95H10.186L10 12.07c17.51 4.477 29.096 15.282 33.904 28.272l-4.89-24.832c-.843-3.425-3.295-4.44-6.325-4.56"/><path fill="#2B3894" d="M186.363 61.453h.66c.467 0 .563-.273.563-.493 0-.377-.245-.465-.625-.465h-.598v.958zm-.57-1.377h1.362c.318 0 1.014.083 1.014.885 0 .212-.064.511-.519.706v.017c.394.067.415.44.438.738.03.477 0 .563.125.731h-.592c-.113-.113-.088-.202-.113-.702 0-.284-.036-.574-.676-.574h-.469v1.275h-.57v-3.076zm1.125 4.176c1.399 0 2.5-1.162 2.5-2.613 0-1.454-1.101-2.615-2.5-2.615s-2.498 1.161-2.498 2.615c0 1.451 1.099 2.613 2.498 2.613zm0-5.696A3.068 3.068 0 0 1 190 61.64c0 1.7-1.355 3.081-3.082 3.081a3.066 3.066 0 0 1-3.08-3.08 3.067 3.067 0 0 1 3.08-3.084"/></svg>