<svg xmlns="http://www.w3.org/2000/svg" width="283.983" height="162.011" viewBox="0 0 283.983 162.011"><path fill="#006729" fill-rule="evenodd" clip-rule="evenodd" d="M138.945 161.332h16.974s5.126-.565 7.747-3.386c2.409-2.592 2.332-7.456 2.332-7.456s-.332-22.775 10.237-26.13c10.423-3.306 23.804 22.013 37.986 31.748 10.725 7.365 18.875 5.753 18.875 5.753l37.925-.529s19.838-1.225 10.431-16.822c-.77-1.274-5.479-11.538-28.199-32.626-23.781-22.072-20.594-18.501 8.052-56.68 17.444-23.251 24.418-37.445 22.238-43.525-2.076-5.792-14.907-4.262-14.907-4.262l-42.7.265s-3.168-.432-5.515.973c-2.295 1.373-3.768 4.581-3.768 4.581s-6.761 17.991-15.771 33.294c-19.014 32.286-26.617 33.995-29.726 31.987-7.231-4.673-5.424-18.769-5.424-28.786 0-31.29 4.746-44.336-9.242-47.712C151.849.898 148.43.157 136.559.037c-15.237-.156-28.13.046-35.432 3.623-4.858 2.38-8.606 7.679-6.322 7.985 2.823.376 9.213 1.725 12.601 6.335 4.377 5.955 4.223 19.323 4.223 19.323s2.515 36.833-5.872 41.407c-5.755 3.138-13.651-3.269-30.603-32.561-8.684-15.003-15.242-31.591-15.242-31.591s-1.263-3.099-3.52-4.758c-2.736-2.01-6.559-2.647-6.559-2.647l-40.577.264s-6.09.17-8.328 2.819c-1.991 2.358-.159 7.229-.159 7.229S32.535 91.787 68.506 129.24c32.988 34.346 70.439 32.092 70.439 32.092z"/></svg>