<svg xmlns="http://www.w3.org/2000/svg" viewBox="0 0 200 75.785455" height="75.785" width="200"><path d="M70.732 64.984l8.73-54.042h13.954l-8.729 54.042H70.732M135.303 12.268C132.544 11.184 128.205 10 122.8 10c-13.796 0-23.507 7.335-23.588 17.836-.088 7.767 6.93 12.1 12.22 14.682 5.438 2.647 7.265 4.34 7.244 6.707-.038 3.62-4.34 5.278-8.353 5.278-5.586 0-8.555-.817-13.144-2.835l-1.795-.86-1.951 12.097c3.254 1.505 9.286 2.812 15.546 2.88 14.662 0 24.19-7.245 24.301-18.459.05-6.16-3.668-10.83-11.72-14.684-4.877-2.506-7.87-4.166-7.836-6.702.003-2.247 2.529-4.65 7.994-4.65 4.564-.074 7.869.977 10.443 2.075l1.253.619 1.89-11.716M153.884 45.824a6740.563 6740.563 0 0 0 5.559-15.105c-.082.142 1.15-3.131 1.855-5.157l.941 4.661s2.678 12.9 3.23 15.6h-11.585zm17.215-34.827h-10.784c-3.345 0-5.848.956-7.314 4.48l-20.723 49.526h14.657s2.391-6.662 2.934-8.124c1.598 0 15.84.027 17.873.027.418 1.886 1.699 8.097 1.699 8.097h12.951L171.1 10.997M59.025 10.987L45.367 47.831l-1.463-7.49c-2.545-8.628-10.468-17.981-19.33-22.668L37.07 64.937l14.769-.009 21.975-53.94H59.025" fill="#2b3894"/><path d="M32.689 10.95H10.186L10 12.07c17.51 4.477 29.096 15.282 33.904 28.272l-4.89-24.832c-.843-3.425-3.295-4.44-6.325-4.56" fill="#f79510"/><path d="M186.363 61.453h.66c.468 0 .564-.273.564-.493 0-.377-.246-.465-.625-.465h-.599v.958zm-.57-1.378h1.362c.317 0 1.014.084 1.014.885 0 .212-.063.512-.519.706v.017c.394.067.415.44.438.738.028.478 0 .563.124.731h-.591c-.113-.113-.087-.201-.113-.702 0-.284-.036-.574-.676-.574h-.469v1.276h-.57v-3.077zm1.125 4.177c1.4 0 2.5-1.162 2.5-2.614 0-1.453-1.1-2.614-2.5-2.614s-2.498 1.161-2.498 2.614c0 1.452 1.099 2.614 2.498 2.614zm0-5.696A3.068 3.068 0 0 1 190 61.638c0 1.7-1.356 3.082-3.082 3.082a3.066 3.066 0 0 1-3.08-3.082c0-1.7 1.354-3.082 3.08-3.082" fill="#2b3894"/></svg>