<svg xmlns="http://www.w3.org/2000/svg" width="60.403" height="69.113" viewBox="0 0 60.403 69.113"><path fill="#fff" d="M59.359 48.938l-7.465-4.313 6.301-3.754c1.012-.488 1.328-1.848.75-2.848-.586-1.023-1.852-1.238-2.813-.68l-8.398 4.922-13.352-7.77 13.352-7.688 8.398 4.91c.262.191.602.304.977.304.711 0 1.348-.335 1.836-.976.563-1.016.262-2.359-.75-2.848l-6.301-3.75 7.465-4.312c.973-.563 1.305-1.817.75-2.848-.531-.992-1.848-1.336-2.852-.754l-7.5 4.352-.113-7.504c-.016-1.16-.898-2.094-2.063-2.094-1.16 0-2.07 1.008-2.063 2.094l.074 9.906-13.272 7.69V15.375l8.363-4.766c.977-.554 1.402-1.839.824-2.847-.586-1.028-1.789-1.328-2.813-.754l-6.375 3.601V2.098A2.094 2.094 0 0 0 30.223 0c-1.164 0-2.063.938-2.063 2.098v8.59l-6.601-3.68c-1.028-.567-2.2-.246-2.774.754a2.065 2.065 0 0 0 .785 2.847l8.59 4.84v15.446l-13.578-7.832.078-9.68c.113-1.086-.863-2.094-2.027-2.094h-.074c-1.086 0-2.051.934-2.063 2.094l-.074 7.281-7.313-4.199c-1.019-.594-2.281-.242-2.812.742-.559 1.039-.27 2.266.75 2.856l7.387 4.273-6.45 3.863c-1.011.489-1.328 1.848-.711 2.848.395.648.973.976 1.762.976.41 0 .754-.101 1.086-.304l8.438-4.985 13.539 7.762-13.539 7.84-8.438-4.992c-1.012-.59-2.32-.313-2.848.68-.558 1.031-.257 2.273.711 2.848l6.45 3.824-7.387 4.313c-1.016.594-1.348 1.84-.75 2.855.418.703.976 1.047 1.762 1.047.187 0 .562-.109 1.05-.301l7.313-4.203.074 7.281a2.085 2.085 0 0 0 2.063 2.055h.074c1.164 0 2.035-.965 2.027-2.133l-.078-9.672 13.578-7.762v15.367l-8.59 4.84c-1.023.578-1.382 1.832-.785 2.848.414.715.973 1.059 1.762 1.059.375 0 .719-.066 1.012-.234l6.601-3.742v8.734c0 1.16.899 2.066 2.063 2.066 1.16 0 2.097-.906 2.097-2.066v-8.59l6.375 3.598c.293.168.637.234.977.234.824 0 1.434-.336 1.836-1.059.57-1.008.203-2.27-.824-2.848l-8.363-4.688V38.098l13.273 7.688-.074 9.824c-.008 1.168.902 2.133 2.063 2.133 1.164 0 2.047-.895 2.063-2.055l.113-7.543 7.5 4.391c.289.168.676.227 1.09.227.785 0 1.363-.328 1.762-.977.612-1.001.221-2.29-.752-2.848zm0 0"/></svg>