<svg xmlns="http://www.w3.org/2000/svg" xmlns:xlink="http://www.w3.org/1999/xlink" width="45.84" height="46" viewBox="0 0 45.84 46"><defs><path id="a" d="M0 0h45.84v46H0z"/></defs><clipPath id="b"><use xlink:href="#a" overflow="visible"/></clipPath><path clip-path="url(#b)" fill="#7d7d7d" d="M30.406 32.168c-.457-.453-1.09-.703-1.785-.703-.73 0-1.438.285-1.934.785l-3.156 3.152-.851-.472c-1.871-1.039-4.442-2.465-7.153-5.18-2.722-2.719-4.148-5.293-5.191-7.176l-.465-.828 3.16-3.156c1.043-1.047 1.078-2.715.078-3.719L7.273 9.039c-.453-.453-1.085-.707-1.781-.707-.73 0-1.433.289-1.933.789l-1.434 1.438-.133.223a9.077 9.077 0 0 0-1.297 2.289 9.448 9.448 0 0 0-.578 2.32c-.754 6.25 2.129 11.988 9.949 19.808 9.27 9.27 17.016 9.992 19.172 9.992.367 0 .59-.023.652-.027a9.574 9.574 0 0 0 2.324-.586 9.16 9.16 0 0 0 2.281-1.289l.324-.258 1.34-1.316c1.043-1.043 1.078-2.707.074-3.711l-5.827-5.836zm0 0"/><path fill="#7d7d7d" d="M24.23 21.379a10.15 10.15 0 0 0-4.609-2.636l-.801-.215-.23.793c-.086.293-.188.57-.301.82l-.434.926.993.258a7.51 7.51 0 0 1 3.472 1.964 7.505 7.505 0 0 1 1.922 3.293l.168.602 1.254.07c.129.016.254.027.375.039l1.18.113-.277-1.152a10.211 10.211 0 0 0-2.712-4.875zm0 0M28.324 17.282c-2.359-2.356-5.371-3.895-8.707-4.446l-1.16-.195.18 1.16c.054.344.101.688.14 1.031l.075.614.617.121a13.134 13.134 0 0 1 6.941 3.629c2.164 2.16 3.484 4.921 3.82 7.98l.07.648.98.141c.16.012.32.012.543.012l1.184.043-.094-.965c-.366-3.758-1.956-7.137-4.589-9.773zm0 0"/><path fill="#7d7d7d" d="M32.77 12.836a22.267 22.267 0 0 0-14.503-6.484L17.2 6.286l.18 1.05c.055.34.121.692.191 1.055l.129.637.645.039a19.57 19.57 0 0 1 12.516 5.679c3.285 3.286 5.293 7.68 5.652 12.367l.063.836.832-.051c.199-.008.395-.027.68-.051l1.191-.094-.066-.848c-.408-5.326-2.697-10.326-6.443-14.069zm0 0"/><path fill="#7d7d7d" d="M45.496 26.309a28.608 28.608 0 0 0-8.273-17.926A28.509 28.509 0 0 0 18.066.036L17.242 0l-.058.825c-.016.23-.028.457-.036.687l-.05 1.199.851.028c6.566.246 12.73 2.929 17.359 7.558 4.34 4.336 7 10.102 7.496 16.234l.07.859.867-.082c.293-.031.59-.055.891-.078l.934-.07-.07-.851zm0 0"/></svg>